{"glyphs":{":":{"x_min":0,"x_max":308,"ha":308,"o":"m 155 146 q 188 146 207 126 q 226 106 226 72 q 226 34 207 11 q 188 -12 156 -12 q 123 -12 103 9 q 82 30 82 64 q 82 99 104 122 q 125 146 155 146 z m 155 498 q 188 498 207 479 q 226 459 226 425 q 226 387 207 364 q 188 341 156 341 q 123 341 102 362 q 82 383 82 417 q 82 451 104 475 q 125 498 155 498 z"},"$":{"x_min":0,"x_max":580,"ha":580,"o":"m 314 269 l 314 30 q 366 35 394 60 q 422 85 422 127 q 422 166 395 201 q 368 237 314 269 z m 281 660 q 231 655 207 636 q 182 616 182 581 q 182 552 206 523 q 229 495 281 463 z m 281 767 l 322 767 l 322 697 q 338 694 369 687 q 422 674 446 674 q 454 674 462 675 q 471 676 483 679 q 482 632 481 606 q 481 581 481 558 l 481 512 l 458 512 q 438 580 404 617 q 369 654 322 659 l 322 437 q 422 378 472 316 q 521 254 521 186 q 521 102 463 46 q 405 -11 314 -15 l 314 -152 l 273 -152 l 273 -14 q 252 -12 184 7 q 116 26 66 26 l 59 26 q 60 62 61 106 q 62 150 63 233 l 85 233 q 105 138 153 86 q 200 34 273 29 l 273 293 q 168 350 122 406 q 75 462 75 529 q 75 606 128 653 q 182 699 271 699 l 281 699 z"},"?":{"x_min":0,"x_max":567,"ha":567,"o":"m 244 146 q 277 146 296 126 q 315 105 315 71 q 315 34 296 11 q 276 -12 245 -12 q 212 -12 191 9 q 171 30 171 64 q 171 99 192 122 q 214 146 244 146 z m 256 225 l 235 225 q 235 229 234 236 q 234 244 234 247 q 234 281 242 310 q 250 339 269 373 q 274 381 297 413 q 320 445 335 470 q 348 491 354 514 q 361 537 361 561 q 361 618 328 657 q 295 697 248 697 q 220 697 206 681 q 192 666 192 633 q 192 628 192 616 q 193 604 193 597 q 193 557 179 543 q 165 530 124 530 q 92 530 78 543 q 65 556 65 586 q 65 654 115 691 q 166 728 259 728 q 364 728 422 686 q 480 644 480 568 q 480 530 467 496 q 453 461 427 433 q 400 404 342 359 q 316 339 304 329 q 281 309 269 283 q 257 257 256 225 z"},"<":{"x_min":0,"x_max":833,"ha":833,"o":"m 704 583 l 704 476 l 268 298 l 704 120 l 704 13 l 129 250 l 129 347 z"},"'":{"x_min":0,"x_max":178,"ha":178,"o":"m 99 416 l 79 416 l 40 641 q 39 647 39 651 q 38 656 38 659 q 38 685 52 700 q 65 715 89 715 q 112 715 126 701 q 139 687 139 661 q 139 653 139 649 q 139 645 138 641 z"},"=":{"x_min":0,"x_max":833,"ha":833,"o":"m 124 242 l 709 242 l 709 145 l 124 145 z m 124 452 l 709 452 l 709 355 l 124 355 z"},"a":{"x_min":0,"x_max":517,"ha":517,"o":"m 309 257 q 251 252 219 225 q 187 198 187 155 q 187 122 204 104 q 221 85 250 85 q 269 85 283 92 q 298 99 309 113 z m 440 311 l 440 100 q 440 83 443 75 q 447 67 454 67 q 461 67 468 69 q 475 71 481 75 l 481 45 q 458 17 431 2 q 404 -12 377 -12 q 344 -12 327 10 q 310 32 309 76 q 266 31 228 9 q 190 -13 155 -13 q 106 -13 75 22 q 43 57 43 112 q 43 188 111 235 q 179 281 309 294 l 309 378 q 309 407 294 424 q 279 440 252 440 q 223 440 211 426 q 199 411 196 370 q 193 326 179 316 q 166 307 122 307 q 92 307 80 317 q 69 328 69 354 q 69 418 118 450 q 167 481 267 481 q 358 481 399 441 q 440 401 440 311 z"},"L":{"x_min":0,"x_max":641,"ha":641,"o":"m 60 717 q 89 714 124 713 q 159 712 206 712 q 255 712 290 713 q 324 714 353 717 l 353 686 q 314 681 302 669 q 290 657 290 612 l 290 92 q 290 64 298 59 q 306 54 340 54 q 458 54 515 85 q 572 116 602 192 l 628 192 q 615 144 603 95 q 592 46 582 -3 q 543 0 490 1 q 436 2 354 2 q 237 2 167 1 q 98 0 53 -3 l 53 29 q 96 33 109 45 q 121 56 121 102 l 121 612 q 121 657 109 669 q 98 681 60 686 z"},"3":{"x_min":0,"x_max":580,"ha":580,"o":"m 119 688 l 122 688 q 243 684 302 684 q 335 684 373 685 q 411 686 484 688 l 285 423 l 299 423 q 389 423 441 371 q 493 320 493 230 q 493 125 422 55 q 351 -14 244 -14 q 189 -14 140 7 q 91 27 41 71 l 64 95 q 91 72 123 61 q 156 49 191 49 q 257 49 299 92 q 341 136 341 205 q 341 273 299 313 q 258 353 182 358 l 341 564 l 205 564 q 169 564 148 559 q 127 555 110 544 l 87 544 q 100 602 107 632 q 114 663 119 688 z"},";":{"x_min":0,"x_max":308,"ha":308,"o":"m 44 -152 l 44 -126 q 98 -110 130 -75 q 161 -39 168 14 q 158 4 146 0 q 135 -5 123 -5 q 100 -5 86 12 q 72 29 72 58 q 72 94 95 118 q 119 143 153 143 q 189 143 211 114 q 233 85 233 36 q 233 -34 181 -86 q 130 -137 44 -152 z m 154 498 q 188 498 206 479 q 225 459 225 425 q 225 387 206 364 q 187 341 155 341 q 122 341 101 362 q 81 383 81 417 q 81 451 103 475 q 124 498 154 498 z"},"J":{"x_min":0,"x_max":411,"ha":411,"o":"m 52 717 q 78 714 109 713 q 140 712 183 712 q 245 712 286 713 q 327 714 357 717 l 357 686 q 315 683 302 670 q 289 658 289 612 l 289 160 q 289 72 281 24 q 272 -24 253 -55 q 227 -100 182 -132 q 137 -164 71 -184 l 57 -160 q 92 -136 106 -102 q 121 -69 121 10 l 121 612 q 121 658 107 670 q 94 683 52 686 z"},"V":{"x_min":0,"x_max":685,"ha":685,"o":"m -11 717 q 11 714 40 713 q 70 712 114 712 q 173 712 212 713 q 250 714 279 717 l 279 686 q 250 686 239 679 q 227 671 227 654 q 227 648 231 634 q 236 620 245 597 l 400 205 l 557 621 q 563 637 565 645 q 567 653 567 659 q 567 671 554 678 q 541 685 515 686 l 515 717 q 541 714 564 713 q 588 712 610 712 q 629 712 650 713 q 670 714 692 717 l 692 686 q 668 685 652 668 q 636 651 611 587 l 375 -13 l 307 -13 l 64 610 q 47 653 30 670 q 14 686 -11 686 z"},"\"":{"x_min":0,"x_max":345,"ha":345,"o":"m 265 416 l 245 416 l 206 641 q 205 647 205 651 q 204 656 204 659 q 204 685 218 700 q 231 715 255 715 q 279 715 292 700 q 306 686 306 661 q 306 658 306 654 q 305 649 304 641 z m 99 416 l 79 416 l 40 641 q 40 645 39 648 q 39 652 39 659 q 39 685 53 700 q 66 715 89 715 q 112 715 126 701 q 139 687 139 661 q 139 653 139 649 q 139 645 138 641 z"},"7":{"x_min":0,"x_max":580,"ha":580,"o":"m 125 688 l 128 688 q 263 684 330 684 q 366 684 408 685 q 449 686 530 688 q 452 500 391 324 q 330 148 286 -13 l 170 -13 q 219 144 273 284 q 328 425 388 552 l 218 552 q 170 552 147 544 q 124 537 108 519 l 84 519 q 90 544 104 602 q 118 660 125 688 z"},"S":{"x_min":0,"x_max":614,"ha":614,"o":"m 495 710 q 495 696 494 679 q 494 663 494 627 q 494 591 494 572 q 495 553 495 536 l 473 536 q 449 607 410 643 q 371 678 316 678 q 269 678 238 654 q 208 629 208 591 q 208 534 320 474 q 346 460 360 452 q 364 450 372 445 q 459 396 496 358 q 523 330 537 293 q 551 256 551 213 q 551 111 482 49 q 413 -14 301 -14 q 254 -14 183 6 q 111 27 83 27 l 73 27 q 73 65 72 140 q 71 215 71 252 l 99 252 q 124 157 176 105 q 228 54 298 54 q 351 54 386 84 q 422 114 422 159 q 422 192 404 218 q 385 244 345 267 q 314 285 264 311 q 214 336 199 347 q 124 397 96 439 q 68 481 68 537 q 68 619 131 673 q 193 728 288 728 q 317 728 373 717 q 428 706 454 706 q 465 706 476 707 q 486 708 495 710 z"},"}":{"x_min":0,"x_max":500,"ha":500,"o":"m 84 740 q 199 740 241 705 q 283 669 283 571 l 283 477 q 283 396 311 366 q 338 336 414 329 l 414 292 q 338 285 311 255 q 283 225 283 144 l 283 50 q 283 -47 242 -83 q 200 -119 90 -119 l 84 -119 l 84 -90 q 142 -89 164 -63 q 186 -38 186 39 l 186 105 q 186 215 212 255 q 238 294 308 310 q 238 326 212 366 q 186 406 186 516 l 186 581 q 186 657 164 683 q 142 709 84 710 z"},"Z":{"x_min":0,"x_max":707,"ha":707,"o":"m 93 717 q 145 714 208 713 q 271 712 401 712 q 493 712 557 713 q 621 714 670 717 l 250 58 l 323 58 q 418 58 483 67 q 548 76 575 93 q 597 107 613 136 q 629 165 639 208 l 665 208 q 661 161 659 109 q 657 58 656 -3 q 596 -1 523 -1 q 449 0 362 0 q 263 0 180 -1 q 96 -1 27 -3 l 442 660 l 359 660 q 225 660 177 632 q 129 604 113 527 l 83 527 q 87 573 90 620 q 92 667 93 717 z"},"x":{"x_min":0,"x_max":469,"ha":469,"o":"m -6 469 q 43 466 68 466 q 93 465 114 465 q 154 465 233 469 l 236 469 l 236 443 q 221 441 212 435 q 203 428 203 419 q 203 411 213 395 q 215 392 216 391 l 268 313 l 318 381 q 331 399 334 406 q 337 413 337 418 q 337 428 328 434 q 319 441 303 443 l 303 469 l 306 469 q 355 465 380 465 q 394 465 411 466 q 428 467 459 469 l 459 443 q 440 440 417 422 q 394 404 371 374 l 293 273 l 404 112 q 439 61 456 44 q 472 27 487 24 l 487 -3 q 458 -1 427 0 q 396 1 361 1 q 326 1 296 0 q 266 -1 238 -3 l 238 24 q 256 28 266 34 q 275 41 275 50 q 275 57 271 67 q 268 77 261 87 l 194 189 l 125 94 q 116 82 111 71 q 106 59 106 52 q 106 42 116 34 q 126 27 144 24 l 144 -3 q 126 -1 107 0 q 88 1 66 1 q 44 1 25 0 q 5 -1 -13 -3 l -13 24 q 8 29 28 47 q 47 64 80 110 l 166 229 l 62 383 q 44 410 28 423 q 13 437 -6 443 z"},")":{"x_min":0,"x_max":421,"ha":421,"o":"m 44 727 q 183 653 251 547 q 320 441 320 301 q 320 153 255 39 q 191 -76 57 -166 l 42 -143 q 119 -67 155 36 q 192 139 192 279 q 192 415 149 530 q 105 644 31 707 z"},"&":{"x_min":0,"x_max":803,"ha":803,"o":"m 254 359 q 213 343 190 309 q 167 274 167 229 q 167 167 214 119 q 260 71 322 71 q 348 71 373 80 q 397 90 419 108 q 370 162 329 225 q 287 288 254 359 z m 367 413 q 396 352 432 294 q 468 237 509 185 q 548 235 570 278 q 592 321 592 345 q 592 364 582 373 q 572 382 547 386 l 547 417 q 566 415 590 413 q 614 412 648 412 q 687 412 714 413 q 741 415 763 417 l 763 386 q 730 382 708 369 q 686 356 669 330 q 667 327 662 319 q 606 235 540 153 q 573 115 612 93 q 651 72 688 72 q 707 72 729 78 q 751 84 777 97 l 789 78 q 753 35 709 11 q 665 -13 620 -13 q 578 -13 536 8 q 495 29 451 73 q 392 28 337 8 q 283 -13 226 -13 q 140 -13 85 39 q 30 92 30 172 q 30 247 83 305 q 136 363 237 400 q 221 443 214 479 q 206 514 206 543 q 206 624 255 676 q 305 728 381 728 q 455 728 501 692 q 548 656 548 600 q 548 542 501 493 q 454 444 367 413 z m 353 446 q 404 482 428 521 q 452 559 452 603 q 452 641 433 664 q 414 688 383 688 q 352 688 331 663 q 311 638 311 598 q 311 568 321 531 q 331 494 353 446 z"},"_":{"x_min":0,"x_max":500,"ha":500,"o":"m 0 -136 l 500 -136 l 500 -236 l 0 -236 z"},"v":{"x_min":0,"x_max":477,"ha":477,"o":"m -4 469 q 44 466 69 466 q 93 465 113 465 q 152 465 229 469 l 232 469 l 232 443 q 210 439 202 434 q 195 428 195 417 q 195 413 197 404 q 199 395 202 385 l 277 171 l 360 386 q 364 397 365 405 q 367 412 367 417 q 367 430 358 436 q 349 441 326 443 l 326 469 q 356 466 371 466 q 386 465 399 465 q 412 465 428 466 q 444 467 472 469 l 472 443 q 455 441 442 427 q 430 414 412 373 l 244 -13 l 211 -13 l 56 375 l 56 375 q 30 441 -4 443 z"},"O":{"x_min":0,"x_max":833,"ha":833,"o":"m 620 345 q 620 493 562 582 q 503 671 409 671 q 323 671 271 600 q 218 529 218 411 q 218 259 281 161 q 344 62 438 62 q 522 62 571 138 q 620 213 620 345 z m 429 728 q 508 728 575 700 q 643 671 696 615 q 740 569 764 502 q 788 436 788 360 q 788 193 683 90 q 578 -13 408 -13 q 244 -13 145 88 q 45 188 45 355 q 45 438 71 503 q 96 568 149 621 q 200 673 272 701 q 344 728 429 728 z"},"(":{"x_min":0,"x_max":421,"ha":421,"o":"m 361 728 l 377 704 q 301 629 264 526 q 226 424 226 292 q 226 150 269 34 q 312 -82 387 -146 l 374 -166 q 234 -92 166 15 q 98 122 98 266 q 98 410 163 525 q 229 640 361 728 z"},"C":{"x_min":0,"x_max":709,"ha":709,"o":"m 631 701 q 631 690 632 665 q 636 539 640 457 l 612 457 q 586 563 536 617 q 485 670 412 670 q 324 670 270 598 q 215 525 215 407 q 215 357 224 312 q 233 267 251 229 q 285 157 340 118 q 395 78 461 78 q 510 78 557 104 q 604 129 647 178 l 667 159 q 619 73 545 30 q 470 -14 373 -14 q 307 -14 253 6 q 199 26 157 66 q 102 119 73 191 q 44 263 44 347 q 44 424 68 492 q 92 560 139 614 q 188 669 254 699 q 321 728 398 728 q 441 728 506 712 q 570 697 594 697 q 600 697 607 698 q 615 699 631 701 z"},"W":{"x_min":0,"x_max":945,"ha":945,"o":"m 8 717 q 35 714 69 713 q 103 712 153 712 q 199 712 231 713 q 264 714 290 717 l 290 686 q 267 684 254 675 q 241 665 241 651 q 241 642 243 631 q 246 619 250 606 l 382 227 l 460 484 l 416 622 q 406 653 390 667 q 374 682 344 686 l 344 717 q 371 714 405 713 q 440 712 489 712 q 536 712 568 713 q 601 714 627 717 l 627 686 q 597 681 583 674 q 569 667 569 656 q 569 647 571 636 q 573 625 578 607 l 690 227 l 809 618 q 813 632 815 641 q 817 651 817 659 q 817 671 803 678 q 790 685 765 686 l 765 717 q 790 714 813 713 q 835 712 858 712 q 885 712 905 713 q 924 714 941 717 l 941 686 q 913 684 895 664 q 877 644 860 589 l 663 -13 l 603 -13 l 484 406 l 351 -13 l 289 -13 l 83 610 q 70 649 52 668 q 34 686 8 686 z"},"A":{"x_min":0,"x_max":688,"ha":688,"o":"m 290 516 l 195 263 l 384 263 z m 320 728 l 366 728 l 629 83 q 639 59 654 47 q 669 35 696 29 l 696 -3 q 666 0 628 1 q 591 3 545 3 q 515 3 483 2 q 452 0 409 -3 l 409 29 q 436 34 445 41 q 455 47 455 60 q 455 65 453 74 q 451 83 447 93 l 406 208 l 171 208 l 129 93 q 124 79 122 72 q 120 64 120 58 q 120 43 129 37 q 138 31 162 29 l 162 -3 q 136 -1 114 0 q 92 1 74 1 q 55 1 33 0 q 11 -1 -11 -3 l -11 29 q 17 33 33 47 q 49 60 61 89 z"},"f":{"x_min":0,"x_max":332,"ha":332,"o":"m 222 600 l 222 467 l 301 467 l 301 427 l 222 427 l 222 101 q 222 56 233 42 q 244 28 277 24 l 277 -3 q 251 -1 222 0 q 192 1 159 1 q 125 1 96 0 q 67 -1 40 -3 l 40 24 q 68 30 77 43 q 87 57 87 101 l 87 427 l 44 427 l 44 467 l 87 467 l 87 472 q 87 615 128 685 q 170 754 256 754 q 312 754 340 729 q 369 704 369 656 q 369 634 361 626 q 352 617 331 617 q 291 617 284 651 l 284 652 q 282 661 282 678 q 280 717 258 717 q 238 717 230 693 q 222 668 222 600 z"},"Q":{"x_min":0,"x_max":833,"ha":833,"o":"m 628 47 q 670 12 713 -11 q 756 -34 800 -44 l 800 -76 l 775 -76 q 693 -76 625 -58 q 556 -41 500 -5 q 479 -9 455 -11 q 431 -13 402 -13 q 242 -13 144 88 q 45 190 45 355 q 45 438 71 503 q 96 568 149 621 q 201 673 273 701 q 344 728 429 728 q 508 728 575 700 q 643 671 696 615 q 740 569 764 502 q 788 436 788 360 q 788 253 746 172 q 705 90 628 47 z m 620 345 q 620 493 562 582 q 503 671 409 671 q 323 671 271 600 q 218 529 218 411 q 218 259 281 161 q 344 62 438 62 q 522 62 571 138 q 620 213 620 345 z"},"w":{"x_min":0,"x_max":741,"ha":741,"o":"m -4 469 q 44 466 69 466 q 93 465 113 465 q 152 465 229 469 l 232 469 l 232 443 q 210 439 202 434 q 195 428 195 417 q 195 411 197 402 q 199 393 202 385 l 291 161 l 360 309 l 334 375 l 334 375 q 308 441 274 443 l 274 469 q 322 466 346 466 q 371 465 391 465 q 412 465 437 466 q 462 467 509 469 l 509 443 q 487 439 479 434 q 472 428 472 417 q 472 413 474 404 q 476 395 479 385 l 552 171 l 635 386 q 638 394 639 402 q 641 410 641 416 q 641 429 633 435 q 625 440 601 443 l 601 469 q 619 467 637 467 q 656 466 674 466 q 692 466 710 467 q 728 467 746 469 l 746 443 q 729 442 717 428 q 705 415 687 373 l 520 -13 l 487 -13 l 384 246 l 257 -13 l 226 -13 l 59 374 q 41 418 28 430 q 15 442 -4 443 z"},"-":{"x_min":0,"x_max":329,"ha":329,"o":"m 30 300 l 300 300 l 300 180 l 30 180 z"},"E":{"x_min":0,"x_max":662,"ha":662,"o":"m 60 717 q 79 716 103 715 q 126 715 176 715 l 309 715 l 450 715 q 503 715 527 715 q 551 716 570 717 q 572 682 574 641 q 576 600 579 553 l 553 553 q 533 614 490 640 q 446 667 366 667 q 313 667 302 658 q 290 650 290 618 l 290 400 l 354 400 q 414 400 443 422 q 472 443 478 492 l 503 492 q 503 481 502 461 q 501 398 501 375 q 501 351 502 286 q 503 268 503 258 l 478 258 q 472 307 443 328 q 414 350 354 350 l 290 350 l 290 96 q 290 64 298 59 q 306 54 342 54 q 455 54 511 83 q 567 111 595 179 l 626 179 l 614 131 q 590 34 582 -3 q 543 0 490 1 q 436 2 354 2 q 237 2 167 1 q 98 0 53 -3 l 53 29 q 96 33 109 45 q 121 56 121 102 l 121 612 q 121 657 109 669 q 98 681 60 686 z"},"s":{"x_min":0,"x_max":436,"ha":436,"o":"m 354 466 q 354 442 356 415 q 357 388 359 351 l 336 351 q 324 396 295 422 q 266 447 227 447 q 200 447 183 431 q 166 416 166 391 q 166 354 234 320 q 259 307 273 299 q 334 265 358 229 q 382 194 382 142 q 382 74 338 30 q 294 -13 225 -13 q 194 -13 144 1 q 95 15 74 15 q 72 15 68 15 q 65 14 63 14 q 64 47 65 80 q 66 112 66 142 l 66 168 l 91 168 q 101 107 138 71 q 174 35 224 35 q 254 35 272 51 q 289 66 289 93 q 289 124 221 162 q 215 165 212 167 q 118 219 90 254 q 62 290 62 339 q 62 401 104 440 q 146 480 211 480 q 234 480 272 471 q 310 463 324 463 q 336 463 342 464 q 349 464 354 466 z"},">":{"x_min":0,"x_max":833,"ha":833,"o":"m 129 583 l 704 347 l 704 250 l 129 13 l 129 120 l 566 298 l 129 476 z"},"l":{"x_min":0,"x_max":310,"ha":310,"o":"m 203 754 l 222 754 l 222 101 q 222 57 232 43 q 241 30 269 24 l 269 -3 q 244 -1 215 0 q 187 1 154 1 q 122 1 94 0 q 65 -1 40 -3 l 40 24 q 68 30 77 43 q 87 57 87 101 l 87 617 q 87 651 78 661 q 69 670 42 673 l 42 701 q 83 708 123 720 q 163 733 203 754 z"},"8":{"x_min":0,"x_max":580,"ha":580,"o":"m 243 323 q 215 286 202 253 q 189 221 189 189 q 189 129 228 90 q 266 50 325 50 q 374 50 403 73 q 431 97 431 136 q 431 203 254 316 z m 370 395 q 462 347 498 305 q 534 263 534 205 q 534 107 465 46 q 396 -14 283 -14 q 177 -14 111 38 q 46 91 46 175 q 46 239 89 282 q 133 326 219 348 q 151 384 117 429 q 82 474 82 527 q 82 602 143 651 q 204 699 301 699 q 397 699 452 658 q 506 617 506 545 q 506 495 472 458 q 439 420 370 395 z m 334 417 q 361 444 375 476 q 389 507 389 543 q 389 595 363 627 q 336 659 295 659 q 255 659 229 634 q 204 609 204 570 q 204 532 235 496 q 265 459 334 417 z"},"\\":{"x_min":0,"x_max":444,"ha":444,"o":"m 38 728 l 102 728 l 418 -106 l 355 -106 z"},"e":{"x_min":0,"x_max":459,"ha":459,"o":"m 422 284 l 139 284 q 143 195 179 149 q 215 103 282 103 q 322 103 356 121 q 391 139 415 172 l 438 156 q 407 71 355 28 q 303 -14 230 -14 q 137 -14 83 50 q 30 113 30 225 q 30 342 87 411 q 145 479 243 479 q 321 479 372 427 q 422 375 422 294 z m 292 320 l 292 324 q 292 378 273 407 q 254 437 221 437 q 184 437 162 407 q 140 377 140 326 l 140 320 z"},"b":{"x_min":0,"x_max":555,"ha":555,"o":"m 206 84 q 223 66 242 57 q 260 48 280 48 q 329 48 360 94 q 390 140 390 216 q 390 296 360 344 q 330 392 281 392 q 266 392 246 384 q 227 376 206 362 z m 187 754 l 206 754 l 206 400 q 248 443 284 461 q 320 480 359 480 q 437 480 481 422 q 526 364 526 262 q 526 142 465 64 q 403 -14 310 -14 q 276 -14 246 -2 q 216 11 190 35 q 166 23 143 11 q 121 -1 100 -13 l 70 -13 l 70 617 q 70 651 61 661 q 52 671 25 673 l 25 701 q 65 707 105 720 q 146 733 187 754 z"},"%":{"x_min":0,"x_max":925,"ha":925,"o":"m 801 254 q 801 297 782 321 q 763 345 729 345 q 708 345 688 334 q 667 324 651 304 q 623 270 607 222 q 591 175 591 129 q 591 87 611 62 q 631 38 665 38 q 719 38 760 102 q 801 165 801 254 z m 723 386 q 792 386 832 346 q 872 307 872 237 q 872 197 859 158 q 846 119 822 86 q 784 35 740 11 q 695 -13 639 -13 q 573 -13 533 28 q 492 69 492 136 q 492 187 516 238 q 539 288 581 327 q 612 356 648 371 q 685 386 723 386 z m 361 568 q 361 611 342 635 q 323 659 288 659 q 268 659 248 648 q 227 637 211 617 q 183 583 167 537 q 151 490 151 443 q 151 401 170 377 q 190 352 223 352 q 278 352 320 416 q 361 479 361 568 z m 666 699 l 707 676 l 262 -13 l 220 9 z m 283 700 q 353 700 392 660 q 432 620 432 550 q 432 510 419 471 q 406 432 382 400 q 345 350 300 325 q 255 300 202 300 q 134 300 93 341 q 52 382 52 450 q 52 501 75 551 q 99 601 141 640 q 171 669 208 685 q 245 700 283 700 z"},"m":{"x_min":0,"x_max":853,"ha":853,"o":"m 488 391 q 531 438 569 459 q 607 480 646 480 q 704 480 738 441 q 771 403 771 335 l 771 101 q 771 57 780 43 q 789 30 816 24 l 816 -3 q 792 -1 764 0 q 737 1 706 1 q 674 1 646 0 q 617 -1 591 -3 l 591 24 q 617 29 627 44 q 636 59 636 101 l 636 322 q 636 356 620 376 q 604 396 576 396 q 560 396 539 387 q 519 378 495 360 l 495 101 q 495 60 505 45 q 514 29 540 24 l 540 -3 q 515 -1 488 0 q 460 1 429 1 q 397 1 370 0 q 342 -1 317 -3 l 317 24 q 342 30 352 45 q 361 60 361 101 l 361 322 q 361 358 345 377 q 330 396 300 396 q 287 396 269 388 q 250 379 222 360 l 222 101 q 222 59 231 44 q 240 30 265 24 l 265 -3 q 241 -1 213 0 q 186 1 154 1 q 123 1 94 0 q 66 -1 40 -3 l 40 24 q 68 30 77 43 q 87 57 87 101 l 87 352 q 87 387 77 396 q 68 406 40 407 l 40 434 q 71 439 106 450 q 141 461 184 480 l 211 480 l 211 383 q 256 436 293 458 q 331 481 372 481 q 414 481 442 459 q 471 437 488 391 z"},"#":{"x_min":0,"x_max":769,"ha":769,"o":"m 344 416 l 300 293 l 429 293 l 472 416 z m 347 715 l 452 715 l 380 512 l 504 512 l 577 715 l 681 715 l 609 512 l 747 512 l 711 415 l 575 415 l 532 294 l 675 294 l 640 198 l 498 198 l 426 -5 l 321 -5 l 393 198 l 269 198 l 196 -5 l 91 -5 l 163 198 l 22 198 l 58 294 l 198 294 l 241 415 l 93 415 l 129 512 l 275 512 z"},",":{"x_min":0,"x_max":290,"ha":290,"o":"m 32 -152 l 32 -126 q 86 -110 118 -75 q 150 -39 157 14 q 147 4 136 0 q 125 -5 112 -5 q 89 -5 75 12 q 61 29 61 58 q 61 94 84 118 q 108 143 142 143 q 178 143 200 114 q 222 85 222 36 q 222 -34 170 -86 q 118 -137 32 -152 z"},"n":{"x_min":0,"x_max":585,"ha":585,"o":"m 184 480 l 211 480 l 211 383 q 255 435 294 457 q 333 480 379 480 q 437 480 470 441 q 504 403 504 335 l 504 101 q 504 57 513 43 q 523 30 551 24 l 551 -3 q 525 -1 497 0 q 469 1 436 1 q 404 1 376 0 q 348 -1 322 -3 l 322 24 q 350 30 360 44 q 369 58 369 101 l 369 322 q 369 358 352 377 q 335 396 302 396 q 282 396 261 387 q 240 377 222 360 l 222 101 q 222 57 232 43 q 241 30 269 24 l 269 -3 q 244 -1 215 0 q 187 1 154 1 q 122 1 94 0 q 65 -1 40 -3 l 40 24 q 68 30 77 43 q 87 57 87 101 l 87 352 q 87 387 77 396 q 68 406 40 407 l 40 434 q 71 439 106 450 q 141 461 184 480 z"},"h":{"x_min":0,"x_max":585,"ha":585,"o":"m 203 754 l 222 754 l 222 388 q 265 438 299 459 q 333 480 371 480 q 435 480 469 442 q 504 405 504 335 l 504 101 q 504 57 513 43 q 523 30 551 24 l 551 -3 q 525 -1 497 0 q 469 1 436 1 q 404 1 376 0 q 348 -1 322 -3 l 322 24 q 350 30 360 44 q 369 58 369 101 l 369 322 q 369 358 352 377 q 335 396 302 396 q 285 396 266 388 q 248 379 222 360 l 222 101 q 222 57 232 43 q 241 30 269 24 l 269 -3 q 244 -1 215 0 q 187 1 154 1 q 122 1 94 0 q 65 -1 40 -3 l 40 24 q 68 30 77 43 q 87 57 87 101 l 87 617 q 87 651 78 661 q 69 670 42 673 l 42 701 q 83 708 123 720 q 163 733 203 754 z"},"z":{"x_min":0,"x_max":485,"ha":485,"o":"m 53 470 q 92 468 139 467 q 187 466 247 466 q 303 466 350 467 q 397 468 439 470 l 205 46 l 249 46 q 334 46 367 67 q 400 88 413 145 l 438 145 q 434 97 430 12 q 430 2 429 -3 q 371 -1 325 -1 q 280 0 249 0 q 204 0 148 -1 q 93 -1 25 -3 l 261 424 l 206 424 q 138 424 112 405 q 86 385 71 333 l 47 333 q 49 367 50 401 q 52 435 53 470 z"},"B":{"x_min":0,"x_max":691,"ha":691,"o":"m 286 107 q 286 66 296 57 q 307 47 335 47 q 390 47 421 85 q 452 124 452 193 q 452 277 419 320 q 387 364 324 364 q 316 364 306 363 q 297 362 286 361 z m 286 408 q 292 408 299 407 q 306 407 322 407 q 375 407 400 439 q 426 470 426 536 q 426 603 398 640 q 371 678 323 678 l 316 678 q 295 678 291 674 q 286 670 286 654 z m 52 717 q 85 714 121 713 q 156 712 194 712 q 231 712 282 714 q 333 717 347 717 q 478 717 538 679 q 598 642 598 560 q 598 485 552 445 q 505 404 404 392 q 519 384 575 338 q 631 292 631 207 q 631 110 557 54 q 482 -2 352 -2 q 341 -2 289 0 q 237 1 196 1 q 160 1 125 0 q 89 -1 52 -3 l 52 29 q 96 33 108 45 q 121 57 121 102 l 121 612 q 121 657 108 670 q 94 683 52 686 z"},"K":{"x_min":0,"x_max":730,"ha":730,"o":"m 459 717 q 481 714 509 713 q 536 712 574 712 q 613 712 641 713 q 670 714 694 717 l 694 686 q 652 683 589 626 q 526 569 409 425 l 650 119 l 652 116 q 717 34 752 29 l 752 -3 q 722 0 684 1 q 646 3 600 3 q 570 3 539 2 q 508 0 465 -3 l 465 29 q 479 32 487 38 q 495 44 495 53 q 495 60 492 66 q 489 73 480 85 l 293 352 l 293 360 q 325 401 379 470 q 510 636 510 661 q 510 674 498 680 q 486 686 459 686 z m 53 717 q 76 714 107 713 q 137 712 183 712 q 243 712 283 713 q 324 714 355 717 l 355 686 q 312 683 299 670 q 286 658 286 612 l 286 102 q 286 57 299 45 q 312 33 355 29 l 355 -3 q 323 0 285 1 q 247 3 203 3 q 160 3 123 1 q 85 0 53 -3 l 53 29 q 96 33 109 45 q 121 56 121 102 l 121 612 q 121 658 108 670 q 95 683 53 686 z"},"R":{"x_min":0,"x_max":725,"ha":725,"o":"m 286 349 q 291 349 296 348 q 302 348 314 348 q 384 348 420 385 q 455 422 455 496 q 455 585 420 628 q 385 671 312 671 q 296 671 291 665 q 286 660 286 635 l 286 629 z m 53 717 q 82 714 115 713 q 147 712 191 712 q 225 712 280 713 q 335 715 356 715 q 500 715 562 673 q 625 631 625 538 q 625 458 584 407 q 542 357 462 339 l 626 109 q 660 62 680 47 q 701 31 724 29 l 724 -3 q 706 0 683 1 q 660 2 626 2 q 587 2 561 1 q 536 0 518 -3 l 357 264 q 341 292 330 300 q 319 307 302 307 q 296 307 293 307 q 290 307 286 306 l 286 102 q 286 57 299 45 q 312 33 355 29 l 355 -3 q 323 0 285 1 q 247 3 203 3 q 160 3 123 1 q 85 0 53 -3 l 53 29 q 96 33 109 45 q 121 56 121 102 l 121 612 q 121 658 108 670 q 95 683 53 686 z"},"T":{"x_min":0,"x_max":625,"ha":625,"o":"m 21 717 q 57 714 114 713 q 170 712 318 712 q 462 712 517 713 q 571 714 606 717 q 603 658 601 613 q 599 567 597 536 l 571 536 q 559 612 535 636 q 511 661 445 661 l 396 661 l 396 102 q 396 57 408 45 q 419 34 458 29 l 458 -3 q 426 0 387 1 q 348 3 301 3 q 270 3 238 2 q 207 0 162 -3 l 162 29 q 203 34 215 45 q 227 57 227 102 l 227 661 l 191 661 q 130 661 94 632 q 57 603 33 536 l 9 536 q 13 579 16 624 q 19 669 21 717 z"},"P":{"x_min":0,"x_max":656,"ha":656,"o":"m 290 344 l 306 344 q 377 344 410 384 q 443 423 443 510 q 443 583 411 627 q 380 671 327 671 q 316 671 307 669 q 298 667 290 664 z m 53 717 q 84 714 116 713 q 147 712 184 712 q 219 712 280 714 q 340 717 364 717 q 495 717 553 671 q 611 625 611 522 q 611 417 539 360 q 467 303 334 303 q 333 303 328 303 q 308 304 290 304 l 290 102 q 290 56 303 44 q 316 33 360 29 l 360 -3 q 327 0 286 1 q 246 3 197 3 q 165 3 131 2 q 98 0 53 -3 l 53 29 q 96 33 109 45 q 121 56 121 102 l 121 612 q 121 658 108 670 q 95 683 53 686 z"},"|":{"x_min":0,"x_max":500,"ha":500,"o":"m 200 764 l 301 764 l 301 -236 l 200 -236 z"},"t":{"x_min":0,"x_max":322,"ha":322,"o":"m 167 611 l 207 611 l 207 467 l 303 467 l 303 427 l 207 427 l 207 134 q 207 97 218 78 q 229 59 251 59 q 261 59 270 63 q 279 67 291 76 l 308 57 q 278 21 246 4 q 214 -13 176 -13 q 124 -13 100 17 q 75 46 75 109 l 75 427 l 25 427 l 25 448 q 79 463 115 504 q 150 544 167 611 z"},"M":{"x_min":0,"x_max":953,"ha":953,"o":"m 62 717 q 85 714 115 713 q 145 712 187 712 q 225 712 251 713 q 277 714 297 717 l 480 222 l 666 717 q 700 714 727 713 q 754 712 775 712 q 809 712 835 713 q 861 714 885 717 l 885 686 q 853 680 843 668 q 832 656 832 612 l 832 102 q 832 57 844 45 q 855 34 894 29 l 894 -3 q 865 0 827 1 q 789 3 743 3 q 703 3 669 1 q 636 0 608 -3 l 608 29 q 647 34 658 45 q 670 56 670 102 l 670 586 l 449 4 l 405 4 l 185 606 l 185 91 q 185 58 197 45 q 209 32 244 29 l 244 -3 q 224 0 201 1 q 178 3 153 3 q 133 3 111 1 q 90 0 62 -3 l 62 29 q 96 31 108 44 q 121 57 121 91 l 121 662 q 116 674 103 679 q 89 685 62 686 z"},"g":{"x_min":0,"x_max":514,"ha":514,"o":"m 181 -25 q 167 -42 161 -58 q 154 -74 154 -89 q 154 -125 188 -148 q 222 -170 278 -170 q 332 -170 365 -150 q 398 -130 398 -99 q 398 -46 218 -29 q 194 -26 181 -25 z m 367 433 l 392 450 q 412 463 426 469 q 439 475 450 475 q 471 475 484 462 q 496 450 496 428 q 496 412 485 400 q 473 389 457 389 q 441 389 428 403 q 416 417 414 417 q 411 417 398 413 q 393 411 389 410 q 408 386 416 359 q 425 332 425 296 q 425 224 375 179 q 325 135 244 135 q 232 135 218 136 q 205 138 186 142 q 174 133 168 125 q 162 117 162 111 q 162 96 241 86 q 265 83 278 82 l 284 81 q 397 66 427 43 q 448 27 460 2 q 472 -24 472 -53 q 472 -132 401 -180 q 330 -228 211 -228 q 121 -228 73 -201 q 26 -173 26 -121 q 26 -89 53 -62 q 80 -36 133 -16 q 89 -6 67 11 q 45 28 45 52 q 45 76 71 100 q 97 125 155 154 q 106 177 81 217 q 55 256 55 307 q 55 380 110 430 q 165 481 244 481 q 278 481 309 469 q 339 458 367 433 z m 226 436 q 202 436 187 417 q 172 399 172 368 q 172 295 199 245 q 227 195 265 195 q 289 195 301 212 q 313 229 313 263 q 313 338 288 387 q 263 436 226 436 z"},"j":{"x_min":0,"x_max":295,"ha":295,"o":"m 184 480 l 221 480 l 221 51 q 221 -87 183 -157 q 145 -227 70 -227 q 26 -227 3 -207 q -20 -187 -20 -148 q -20 -121 -10 -111 q 0 -102 27 -102 q 51 -102 60 -111 q 68 -120 68 -153 q 68 -177 72 -184 q 75 -191 85 -191 q 97 -191 104 -178 q 110 -165 110 -140 q 110 -135 98 -62 q 86 11 86 83 l 86 352 q 86 387 77 396 q 68 405 39 407 l 39 434 q 73 440 109 451 q 145 463 184 480 z m 145 705 q 178 705 196 685 q 215 665 215 630 q 215 594 195 573 q 174 552 140 552 q 109 552 89 573 q 69 594 69 627 q 69 663 90 684 q 111 705 145 705 z"},"i":{"x_min":0,"x_max":299,"ha":299,"o":"m 184 480 l 222 480 l 222 101 q 222 57 232 43 q 241 30 269 24 l 269 -3 q 244 -1 215 0 q 187 1 154 1 q 122 1 94 0 q 65 -1 40 -3 l 40 24 q 68 30 77 43 q 87 57 87 101 l 87 352 q 87 387 77 396 q 68 406 40 407 l 40 434 q 71 439 106 450 q 141 461 184 480 z m 153 705 q 186 705 204 685 q 223 666 223 631 q 223 595 203 573 q 182 552 148 552 q 117 552 96 573 q 76 594 76 627 q 76 663 97 684 q 118 705 153 705 z"},"y":{"x_min":0,"x_max":461,"ha":461,"o":"m -2 469 q 43 467 68 466 q 93 465 113 465 q 134 465 159 466 q 184 467 231 469 l 231 443 q 213 441 204 435 q 195 429 195 417 q 195 411 197 402 q 199 393 202 385 l 283 182 l 343 375 q 343 376 345 381 q 351 402 351 412 q 351 425 341 432 q 330 440 309 443 l 309 469 l 312 469 q 361 465 384 465 q 397 465 413 466 q 428 467 452 469 l 452 443 q 434 438 421 421 q 409 403 390 349 l 255 -32 q 211 -156 179 -191 q 146 -226 93 -226 q 47 -226 26 -206 q 6 -186 6 -140 q 6 -90 16 -78 q 27 -65 66 -65 q 90 -65 98 -71 q 105 -78 107 -100 q 107 -105 108 -116 q 110 -156 132 -156 q 147 -156 160 -141 q 172 -125 186 -86 l 216 -5 l 56 375 q 55 378 53 383 q 29 439 -2 443 z"},"@":{"x_min":0,"x_max":986,"ha":986,"o":"m 574 156 q 544 107 509 83 q 473 60 430 60 q 361 60 322 104 q 282 149 282 227 q 282 283 307 335 q 331 388 377 431 q 411 462 449 479 q 488 495 528 495 q 575 495 601 473 q 628 451 636 406 l 660 486 l 753 486 l 668 184 l 667 181 q 660 152 660 138 q 660 115 670 102 q 680 89 697 89 q 713 89 738 101 q 764 113 786 132 q 836 175 863 238 q 890 301 890 377 q 890 511 798 595 q 706 678 559 678 q 492 678 431 660 q 371 641 320 605 q 235 546 190 454 q 144 363 144 251 q 144 87 247 -9 q 350 -105 523 -105 q 604 -105 679 -80 q 754 -56 829 -4 l 848 -29 q 774 -84 693 -112 q 611 -139 523 -139 q 432 -139 353 -117 q 275 -94 218 -52 q 144 3 104 84 q 65 165 65 261 q 65 337 90 407 q 116 477 165 536 q 236 621 334 667 q 433 712 547 712 q 717 712 820 620 q 922 527 922 374 q 922 295 893 228 q 864 160 810 111 q 781 85 748 72 q 715 58 681 58 q 633 58 605 83 q 578 109 574 156 z m 546 463 q 516 463 491 441 q 466 419 442 371 q 414 315 399 266 q 385 217 385 177 q 385 138 402 115 q 418 93 447 93 q 478 93 508 123 q 537 153 564 212 q 583 257 595 302 q 606 348 606 382 q 606 421 590 442 q 575 463 546 463 z"},".":{"x_min":0,"x_max":290,"ha":290,"o":"m 146 146 q 179 146 198 126 q 217 106 217 72 q 217 34 198 11 q 178 -12 147 -12 q 114 -12 94 9 q 73 30 73 64 q 73 99 95 122 q 116 146 146 146 z"},"p":{"x_min":0,"x_max":551,"ha":551,"o":"m 219 122 q 240 89 264 73 q 288 56 314 56 q 354 56 377 98 q 400 139 400 214 q 400 291 370 335 q 340 380 290 380 q 270 380 252 373 q 233 366 219 352 z m 182 481 l 208 481 l 208 385 q 244 432 284 456 q 324 481 365 481 q 438 481 480 421 q 522 361 522 257 q 522 141 468 71 q 414 0 326 0 q 293 0 266 15 q 238 30 219 58 l 219 -118 q 219 -162 230 -176 q 240 -190 272 -195 l 272 -222 q 245 -220 216 -219 q 186 -218 152 -218 q 118 -218 89 -219 q 59 -220 32 -222 l 32 -195 q 63 -190 73 -176 q 84 -162 84 -118 l 84 354 q 84 389 74 398 q 65 408 37 409 l 37 435 q 72 441 109 453 q 145 464 182 481 z"},"X":{"x_min":0,"x_max":663,"ha":663,"o":"m -27 717 q -1 714 33 713 q 68 712 120 712 q 190 712 236 713 q 281 714 315 717 l 315 686 q 287 686 272 677 q 257 667 257 650 q 257 643 261 632 q 265 621 273 608 l 362 464 l 482 619 q 490 629 495 638 q 499 648 499 655 q 499 668 483 676 q 466 685 438 686 l 438 717 q 462 714 490 713 q 519 712 554 712 q 590 712 617 713 q 645 714 670 717 l 670 686 q 609 684 529 582 l 522 573 l 397 412 l 576 127 q 609 75 638 52 q 667 29 699 29 l 699 -3 q 665 0 622 1 q 579 3 528 3 q 498 3 462 2 q 427 0 357 -3 l 357 29 q 385 29 401 38 q 417 47 417 62 q 417 68 412 81 q 408 94 400 106 l 293 277 l 150 90 q 144 82 141 74 q 137 66 137 61 q 137 46 149 40 q 161 33 198 29 l 198 -3 q 195 -3 189 -2 q 114 3 82 3 q 49 3 -22 -2 q -30 -3 -34 -3 l -34 29 q 28 31 114 142 l 114 142 l 259 329 l 96 587 q 63 638 35 662 q 6 686 -23 686 l -27 686 z"},"*":{"x_min":0,"x_max":564,"ha":564,"o":"m 277 514 l 285 514 l 291 499 q 324 416 324 396 q 324 377 312 366 q 301 355 281 355 q 261 355 249 366 q 238 378 238 399 q 238 412 248 440 q 257 469 277 514 z m 306 530 q 400 515 424 503 q 447 490 447 467 q 447 450 434 436 q 421 422 405 422 q 376 422 319 502 q 309 516 303 524 z m 256 530 l 260 524 q 255 518 247 506 q 187 422 157 422 q 141 422 128 436 q 115 450 115 467 q 115 490 139 503 q 164 516 256 530 z m 307 553 l 303 559 q 308 565 316 577 q 376 661 406 661 q 422 661 435 647 q 448 633 448 616 q 448 593 424 580 q 399 567 307 553 z m 259 559 l 256 553 q 167 566 141 579 q 115 592 115 616 q 115 633 128 647 q 140 661 156 661 q 185 661 243 581 q 253 567 259 559 z m 285 569 l 277 569 q 254 625 246 648 q 238 672 238 683 q 238 704 249 716 q 261 728 281 728 q 301 728 312 717 q 324 705 324 686 q 324 673 317 651 q 310 629 285 569 z"},"Y":{"x_min":0,"x_max":650,"ha":650,"o":"m -26 717 q -2 714 30 713 q 62 712 110 712 q 175 712 217 713 q 259 714 290 717 l 290 686 q 259 682 245 674 q 231 666 231 651 q 231 641 247 613 q 249 609 250 607 l 375 385 l 508 601 q 521 624 526 634 q 530 644 530 651 q 530 667 517 675 q 504 683 473 686 l 473 717 q 493 714 516 713 q 540 712 572 712 q 604 712 628 713 q 652 714 672 717 l 672 686 q 651 684 631 664 q 611 645 571 583 l 402 324 l 402 102 q 402 56 416 44 q 430 32 478 29 l 478 -3 q 441 0 400 1 q 359 3 314 3 q 282 3 243 1 q 205 0 161 -3 l 161 29 q 212 31 227 43 q 241 54 241 102 l 241 321 l 87 582 q 52 641 28 662 q 3 684 -26 686 z"},"c":{"x_min":0,"x_max":456,"ha":456,"o":"m 419 172 l 442 157 q 411 74 359 30 q 308 -13 240 -13 q 144 -13 86 50 q 29 113 29 218 q 29 336 96 408 q 163 481 271 481 q 341 481 383 446 q 425 411 425 352 q 425 319 411 308 q 397 296 358 296 q 323 296 308 307 q 293 318 291 346 q 291 353 290 365 q 284 443 243 443 q 205 443 176 399 q 148 355 148 291 q 148 205 187 155 q 225 105 291 105 q 331 105 363 122 q 396 139 419 172 z"},"!":{"x_min":0,"x_max":311,"ha":311,"o":"m 152 146 q 185 146 205 126 q 224 106 224 72 q 224 35 204 11 q 184 -12 153 -12 q 120 -12 100 9 q 79 30 79 64 q 79 99 101 122 q 122 146 152 146 z m 163 225 l 140 225 q 126 326 105 465 q 83 604 83 630 q 83 676 101 701 q 119 726 152 726 q 185 726 202 701 q 220 676 220 630 q 220 604 198 465 q 176 326 163 225 z"},"/":{"x_min":0,"x_max":444,"ha":444,"o":"m 339 728 l 402 728 l 86 -106 l 22 -106 z"},"[":{"x_min":0,"x_max":421,"ha":421,"o":"m 121 715 l 364 715 l 364 671 l 237 671 l 237 -105 l 364 -105 l 364 -149 l 121 -149 z"},"6":{"x_min":0,"x_max":580,"ha":580,"o":"m 183 287 q 188 192 229 134 q 271 75 329 75 q 374 75 398 107 q 423 139 423 197 q 423 277 388 326 q 354 375 299 375 q 265 375 235 352 q 205 330 183 287 z m 479 681 l 474 650 q 455 654 437 657 q 418 659 402 659 q 295 659 238 574 q 181 490 178 326 q 213 400 258 436 q 303 472 360 472 q 437 472 485 412 q 533 353 533 257 q 533 138 463 62 q 393 -13 284 -13 q 172 -13 110 65 q 47 143 47 282 q 47 375 74 455 q 101 536 152 596 q 195 647 253 673 q 311 699 379 699 q 402 699 427 695 q 452 690 479 681 z"},"r":{"x_min":0,"x_max":416,"ha":416,"o":"m 184 480 l 211 480 l 211 366 q 246 427 273 453 q 301 478 333 478 q 370 478 385 458 q 399 438 399 383 q 399 343 386 328 q 374 312 342 312 q 315 312 307 316 q 298 321 291 333 q 288 338 284 349 q 276 371 264 371 q 259 371 250 363 q 240 355 222 334 l 222 101 q 222 56 233 42 q 244 28 276 24 l 276 -3 q 250 -1 221 0 q 191 1 158 1 q 125 1 96 0 q 67 -1 40 -3 l 40 24 q 68 30 77 43 q 87 57 87 101 l 87 352 q 87 387 77 396 q 68 406 40 407 l 40 434 q 71 439 106 450 q 141 461 184 480 z"},"2":{"x_min":0,"x_max":580,"ha":580,"o":"m 169 135 l 393 135 q 445 135 466 140 q 486 146 498 159 l 517 159 q 505 122 480 49 q 468 14 462 -3 q 410 -1 357 -1 q 304 0 250 0 q 197 0 142 -1 q 88 -1 32 -3 l 32 41 l 62 72 q 347 367 347 470 q 347 535 316 571 q 286 606 229 606 q 177 606 143 579 q 109 551 90 495 l 59 495 q 71 587 133 643 q 196 698 287 698 q 381 698 441 643 q 501 587 501 501 q 501 418 433 340 q 365 263 169 135 z"},"{":{"x_min":0,"x_max":500,"ha":500,"o":"m 416 740 l 416 710 q 357 709 335 684 q 314 658 314 581 l 314 516 q 314 406 288 366 q 262 326 192 310 q 262 294 288 255 q 314 215 314 105 l 314 39 q 314 -38 335 -63 q 357 -89 416 -90 l 416 -119 q 301 -119 260 -84 q 218 -48 218 50 l 218 144 q 218 225 190 255 q 163 285 87 292 l 87 329 q 163 336 190 366 q 218 396 218 477 l 218 571 q 218 669 260 705 q 301 740 416 740 z"},"9":{"x_min":0,"x_max":580,"ha":580,"o":"m 60 48 l 81 72 q 122 51 152 42 q 183 32 208 32 q 292 32 343 118 q 395 203 395 346 l 395 360 q 364 301 320 269 q 275 237 223 237 q 145 237 93 298 q 41 359 41 452 q 41 562 109 631 q 177 699 286 699 q 407 699 470 618 q 533 538 533 383 q 533 199 452 92 q 371 -14 232 -14 q 187 -14 144 1 q 101 17 60 48 z m 386 397 q 383 518 349 585 q 314 653 257 653 q 215 653 189 618 q 163 583 163 526 q 163 440 200 390 q 237 340 299 340 q 330 340 352 354 q 375 369 386 397 z"}," ":{"x_min":0,"x_max":290,"ha":290,"o":""},"I":{"x_min":0,"x_max":411,"ha":411,"o":"m 53 717 q 76 714 107 713 q 137 712 184 712 q 247 712 288 713 q 329 714 359 717 l 359 686 q 317 683 303 670 q 290 658 290 612 l 290 102 q 290 57 303 45 q 316 33 359 29 l 359 -3 q 328 0 287 1 q 246 3 197 3 q 165 3 131 2 q 98 0 53 -3 l 53 29 q 96 33 109 45 q 121 56 121 102 l 121 612 q 121 658 108 670 q 95 683 53 686 z"},"H":{"x_min":0,"x_max":865,"ha":865,"o":"m 53 717 q 76 714 107 713 q 137 712 184 712 q 247 712 288 713 q 329 714 359 717 l 359 686 q 317 683 303 670 q 290 658 290 612 l 290 398 l 575 398 l 575 612 q 575 658 562 670 q 549 682 506 686 l 506 717 q 536 714 575 713 q 613 712 668 712 q 717 712 751 713 q 785 714 812 717 l 812 686 q 770 682 757 670 q 744 659 744 612 l 744 102 q 744 56 757 44 q 770 33 812 29 l 812 -3 q 780 0 740 1 q 700 3 651 3 q 619 3 584 1 q 550 0 506 -3 l 506 29 q 549 33 562 45 q 575 56 575 102 l 575 343 l 290 343 l 290 102 q 290 57 303 45 q 316 33 359 29 l 359 -3 q 328 0 287 1 q 246 3 197 3 q 165 3 131 2 q 98 0 53 -3 l 53 29 q 96 33 109 45 q 121 56 121 102 l 121 612 q 121 658 108 670 q 95 683 53 686 z"},"4":{"x_min":0,"x_max":580,"ha":580,"o":"m 295 544 l 118 290 l 295 290 z m 355 699 l 426 699 l 426 290 l 528 290 l 528 184 l 426 184 l 426 -13 l 295 -13 l 295 184 l 55 184 l 55 290 q 132 397 207 499 q 281 600 355 699 z"},"~":{"x_min":0,"x_max":833,"ha":833,"o":"m 747 392 l 747 284 q 696 250 651 233 q 606 217 562 217 q 540 217 517 221 q 495 225 472 232 q 460 236 438 244 q 331 281 275 281 q 233 281 188 262 q 143 244 87 204 l 87 312 q 139 347 187 365 q 234 382 276 382 q 333 382 418 354 l 420 353 q 429 350 447 344 q 522 317 564 317 q 605 317 649 335 q 693 353 747 392 z"},"D":{"x_min":0,"x_max":831,"ha":831,"o":"m 290 125 q 290 80 302 67 q 314 55 358 55 q 475 55 541 135 q 608 215 608 356 q 608 503 537 586 q 467 669 341 669 q 306 669 298 665 q 290 661 290 638 l 290 635 z m 53 717 q 97 714 140 713 q 183 712 225 712 q 254 712 315 714 q 375 717 405 717 q 592 717 689 631 q 786 546 786 382 q 786 290 754 218 q 722 146 656 90 q 601 42 530 21 q 459 0 348 0 q 332 0 285 1 q 237 2 205 2 q 164 2 126 1 q 89 0 53 -3 l 53 29 q 96 33 109 45 q 121 56 121 102 l 121 612 q 121 658 108 670 q 95 683 53 686 z"},"^":{"x_min":0,"x_max":1000,"ha":1000,"o":"m 442 714 l 557 714 l 797 438 l 742 438 l 499 620 l 256 438 l 201 438 z"},"0":{"x_min":0,"x_max":580,"ha":580,"o":"m 288 648 q 236 648 210 583 q 183 519 183 394 q 183 233 215 148 q 248 64 309 64 q 361 64 383 125 q 406 186 406 332 q 406 479 374 564 q 342 648 288 648 z m 299 699 q 414 699 478 609 q 542 520 542 358 q 542 181 476 84 q 409 -13 288 -13 q 169 -13 104 78 q 38 170 38 338 q 38 502 110 601 q 182 699 299 699 z"},"F":{"x_min":0,"x_max":598,"ha":598,"o":"m 61 717 q 79 716 100 715 q 122 715 168 715 l 295 715 l 455 715 q 508 715 531 715 q 553 716 570 717 q 571 704 572 679 q 577 599 580 553 l 551 553 q 530 615 498 638 q 465 662 401 662 l 329 662 q 300 662 295 657 q 290 652 290 624 l 290 402 l 350 402 q 416 402 444 423 q 472 444 478 497 l 505 497 q 503 466 503 435 q 502 404 502 374 q 502 343 503 312 q 503 281 505 250 l 478 250 q 472 303 443 324 q 415 346 350 346 l 290 346 l 290 102 q 290 56 303 44 q 316 33 360 29 l 360 -3 q 327 0 286 1 q 245 3 197 3 q 164 3 131 2 q 99 0 56 -3 l 56 29 q 97 33 109 45 q 121 57 121 102 l 121 612 q 121 658 109 670 q 97 682 61 686 z"},"`":{"x_min":0,"x_max":500,"ha":500,"o":"m 205 711 l 368 542 l 316 542 l 123 643 q 93 658 82 672 q 70 686 70 704 q 70 727 86 743 q 102 759 125 759 q 144 759 160 749 q 177 740 205 711 z"},"k":{"x_min":0,"x_max":544,"ha":544,"o":"m 341 469 q 379 466 399 466 q 418 465 435 465 q 452 465 472 466 q 492 467 529 469 l 529 444 q 498 442 460 414 q 422 386 337 294 l 472 106 q 503 62 521 45 q 538 28 554 23 l 554 -3 q 528 -1 500 0 q 471 1 439 1 q 407 1 380 0 q 353 -1 328 -3 l 328 23 q 344 30 349 34 q 355 39 355 44 q 355 49 352 56 q 349 63 343 72 l 231 243 l 322 345 q 350 375 361 392 q 372 408 372 418 q 372 425 365 432 q 357 438 341 444 z m 203 754 l 222 754 l 222 101 q 222 57 232 43 q 241 30 269 24 l 269 -3 q 244 -1 215 0 q 187 1 154 1 q 122 1 94 0 q 65 -1 40 -3 l 40 24 q 68 30 77 43 q 87 57 87 101 l 87 617 q 87 651 78 661 q 69 670 42 673 l 42 701 q 83 708 123 720 q 163 733 203 754 z"},"u":{"x_min":0,"x_max":585,"ha":585,"o":"m 202 480 l 217 480 l 217 144 q 217 107 234 89 q 250 71 284 71 q 304 71 324 80 q 345 89 364 107 l 364 370 q 364 393 357 399 q 350 405 325 405 l 325 431 q 365 437 404 449 q 444 462 483 480 l 498 480 l 498 108 q 498 78 506 70 q 514 62 539 61 l 539 32 q 508 29 472 18 q 437 7 396 -13 l 372 -13 l 365 74 q 338 31 300 9 q 261 -13 214 -13 q 150 -13 116 24 q 82 62 82 131 l 82 366 q 82 390 73 397 q 64 404 36 404 l 36 431 q 66 435 107 447 q 148 458 202 480 z"},"]":{"x_min":0,"x_max":421,"ha":421,"o":"m 57 715 l 299 715 l 299 -149 l 57 -149 l 57 -105 l 183 -105 l 183 671 l 57 671 z"},"U":{"x_min":0,"x_max":791,"ha":791,"o":"m 59 717 q 81 714 110 713 q 140 712 185 712 q 245 712 284 713 q 323 714 352 717 l 352 686 q 314 681 302 669 q 290 657 290 612 l 290 246 q 290 148 326 109 q 362 70 448 70 q 545 70 582 120 q 619 171 619 317 l 619 625 q 619 661 606 673 q 593 685 553 686 l 553 717 q 571 714 595 713 q 619 712 654 712 q 682 712 701 713 q 720 714 736 717 l 736 686 q 705 686 692 673 q 680 660 680 626 l 680 301 q 680 234 672 185 q 664 135 648 107 q 614 45 551 15 q 489 -15 395 -15 q 327 -15 272 3 q 217 21 183 56 q 149 90 135 130 q 121 169 121 250 l 121 612 q 121 657 109 669 q 97 681 59 686 z"},"o":{"x_min":0,"x_max":543,"ha":543,"o":"m 256 426 q 213 426 187 387 q 160 348 160 284 q 160 190 201 125 q 241 59 296 59 q 338 59 362 95 q 385 131 385 197 q 385 297 348 362 q 311 426 256 426 z m 29 226 q 29 335 99 408 q 170 480 277 480 q 380 480 448 410 q 515 339 515 233 q 515 125 446 55 q 376 -14 267 -14 q 160 -14 94 52 q 29 118 29 226 z"},"N":{"x_min":0,"x_max":795,"ha":795,"o":"m 34 717 q 57 714 84 713 q 110 712 147 712 q 180 712 204 713 q 229 714 249 717 l 610 247 l 610 623 q 610 657 597 671 q 584 685 551 686 l 551 717 q 567 714 588 713 q 609 712 638 712 q 671 712 694 713 q 716 714 734 717 l 734 686 q 700 684 687 670 q 675 657 675 623 l 675 -13 l 616 -13 l 186 556 l 186 91 q 186 58 198 44 q 211 31 245 29 l 245 -3 q 225 0 202 1 q 179 3 153 3 q 133 3 111 1 q 90 0 62 -3 l 62 29 q 96 31 109 44 q 121 57 121 91 l 121 618 l 68 682 q 61 684 52 685 q 44 686 34 686 z"},"+":{"x_min":0,"x_max":833,"ha":833,"o":"m 367 596 l 466 596 l 466 347 l 709 347 l 709 250 l 466 250 l 466 0 l 367 0 l 367 250 l 124 250 l 124 347 l 367 347 z"},"G":{"x_min":0,"x_max":841,"ha":841,"o":"m 680 703 q 680 653 681 599 q 682 545 683 487 l 656 487 q 634 573 577 625 q 521 676 448 676 q 347 676 285 596 q 222 517 222 387 q 222 316 241 254 q 260 191 296 140 q 324 100 366 78 q 407 56 455 56 q 493 56 522 69 q 552 81 566 103 l 566 254 q 566 297 555 309 q 544 321 510 327 l 510 358 q 538 355 573 354 q 608 353 659 353 q 707 353 739 354 q 771 355 797 358 l 797 327 q 759 322 747 310 q 735 298 735 254 l 735 110 q 681 50 601 18 q 521 -13 421 -13 q 339 -13 273 10 q 207 34 154 81 q 99 130 72 197 q 44 263 44 345 q 44 409 60 467 q 77 524 108 570 q 163 649 246 689 q 329 728 441 728 q 481 728 547 715 q 612 702 638 702 q 646 702 659 703 q 673 703 680 703 z"},"q":{"x_min":0,"x_max":538,"ha":538,"o":"m 334 344 q 334 386 315 408 q 296 430 261 430 q 214 430 186 389 q 157 347 157 278 q 157 199 188 148 q 219 98 265 98 q 301 98 318 119 q 334 140 334 188 z m 348 439 l 453 480 l 469 480 l 469 -118 q 469 -162 480 -176 q 490 -190 522 -195 l 522 -222 q 495 -220 466 -219 q 436 -218 402 -218 q 368 -218 339 -219 q 309 -220 282 -222 l 282 -195 q 313 -190 323 -176 q 334 -162 334 -118 l 334 99 q 311 52 273 27 q 236 2 187 2 q 116 2 73 62 q 30 121 30 220 q 30 333 89 406 q 148 480 235 480 q 262 480 289 470 q 317 460 348 439 z"},"d":{"x_min":0,"x_max":548,"ha":548,"o":"m 332 330 q 332 372 314 394 q 295 416 260 416 q 213 416 185 375 q 156 334 156 265 q 156 184 187 134 q 217 84 266 84 q 300 84 316 105 q 332 127 332 174 z m 448 754 l 467 754 l 467 116 q 467 80 476 71 q 486 62 515 60 l 515 34 q 476 26 440 15 q 404 3 370 -13 l 343 -13 l 343 85 q 307 37 267 12 q 227 -13 186 -13 q 114 -13 72 47 q 30 107 30 211 q 30 333 83 406 q 137 480 225 480 q 258 480 286 465 q 313 450 332 421 l 332 617 q 332 652 321 662 q 309 673 275 673 l 275 701 q 321 706 364 719 q 406 732 448 754 z"},"1":{"x_min":0,"x_max":580,"ha":580,"o":"m 344 699 l 360 699 l 360 101 q 360 57 371 42 q 382 28 416 24 l 416 -3 q 388 -1 356 0 q 325 1 289 1 q 253 1 222 0 q 191 -1 162 -3 l 162 24 q 196 28 208 42 q 219 57 219 101 l 219 515 q 219 549 216 556 q 212 563 201 563 q 193 563 181 559 q 169 556 149 547 l 137 572 q 187 599 239 630 q 291 662 344 699 z"},"5":{"x_min":0,"x_max":580,"ha":580,"o":"m 457 699 l 481 699 q 472 653 465 620 q 459 587 455 562 l 164 562 l 141 419 q 174 441 210 451 q 246 462 287 462 q 381 462 443 399 q 504 336 504 238 q 504 189 487 146 q 470 104 437 69 q 397 29 347 7 q 297 -14 242 -14 q 191 -14 143 3 q 94 20 54 52 l 70 79 q 102 61 132 52 q 162 43 192 43 q 267 43 312 88 q 356 133 356 208 q 356 277 314 319 q 272 362 204 362 q 175 362 145 354 q 116 346 85 330 l 142 688 l 400 688 q 420 688 434 691 q 447 693 457 699 z"}}}
